<?xml version="1.0" encoding="utf-8"?>
<!-- Generator: Adobe Illustrator 18.0.0, SVG Export Plug-In . SVG Version: 6.00 Build 0)  -->
<!DOCTYPE svg PUBLIC "-//W3C//DTD SVG 1.1//EN" "http://www.w3.org/Graphics/SVG/1.1/DTD/svg11.dtd">
<svg version="1.1" id="Layer_1" xmlns="http://www.w3.org/2000/svg" xmlns:xlink="http://www.w3.org/1999/xlink" x="0px" y="0px"
	 viewBox="0 0 144 86.4" enable-background="new 0 0 144 86.4" xml:space="preserve">
<g>
	<path fill="#3D3E55" d="M133.6,39.3c1.7-3.5,2.2-6.7,2.2-9.2c0-7.4-2.8-14.1-8-19.3c-5.3-5.3-11.9-8-19.3-8H91.8
		c-7.6,0-13.9,6-14.4,13.4c-0.8-1.5-1.7-2.9-3-4.1C66.7,4.9,57.5,1.3,46.6,1.3c-11.4,0-21.3,4.1-29.2,12.4c-8,8-12.2,17.9-12.2,29.4
		s4.1,21.4,12.1,29.5c8,8.3,17.9,12.4,29.3,12.4H109c7.9,0,14.8-2.7,20.4-8.1c6-5.6,9.3-13.6,9.3-21.7
		C138.8,49.1,137.1,43.7,133.6,39.3z"/>
	<g>
		<path fill="#FFFFFF" d="M64.6,28.8c-1.8,1.4-4.5,1.5-6.2-0.1c-3.3-2.8-7.2-4.2-11.7-4.2c-5,0-9.3,1.8-12.8,5.4
			c-3.6,3.7-5.3,8-5.3,13.2s1.7,9.6,5.3,13.2c3.4,3.5,7.3,5.2,11.9,5.4c4,0.2,8-1,11.3-3.3c3-2.2,5.2-5,6.6-8.5l0,0H51.9
			c-2.8,0-5.1-2.3-5.1-5.1v-3.6c0-2.8,2.3-5.1,5.1-5.1h22c2.7,0,5,2.3,5,5v1.8c0,9-3.1,16.6-9.4,23s-13.8,9.6-22.7,9.6
			s-16.4-3.1-22.7-9.6s-9.4-14-9.4-23s3.1-16.7,9.4-23c6.3-6.4,13.8-9.6,22.7-9.6c8.5,0,15.5,2.7,21.4,8.1c2.3,2.2,2.2,5.9-0.3,7.7
			L64.6,28.8z"/>
		<path fill="#FFFFFF" d="M121.1,39.7c5.6,3.5,8.4,8.4,8.5,14.8c0,5.6-2.4,11.1-6.5,15c-3.9,3.7-8.6,5.5-14.1,5.5H92.8
			c-3.4,0-6.1-2.7-6.1-6.1V16.4c0-2.8,2.3-5.2,5.2-5.2h16.6c5,0,9.2,1.7,12.8,5.3c3.6,3.6,5.3,7.8,5.3,12.8
			C126.6,33.2,124.7,36.6,121.1,39.7z M100.2,33.7c0,1.1,0.9,2,2,2h6.3c1.2,0,2.3-0.4,3.1-1.3c0.9-0.9,1.3-2.3,1.3-4.1
			s-0.4-3.1-1.3-4c-0.9-1-2-1.4-3.1-1.4h-6.3c-1.1,0-2,0.9-2,2V33.7z M109,61.5c2,0,3.6-0.7,5-2.1c1.4-1.4,2.1-3.3,2.1-5.8
			c0-2.5-0.7-4.5-2.1-5.9c-1.4-1.4-3-2.1-5-2.1h-6.8c-1.1,0-2,0.9-2,2v11.8c0,1.1,0.9,2,2,2H109z"/>
	</g>
</g>
</svg>
