<?xml version="1.0" encoding="utf-8"?>
<!-- Generator: Adobe Illustrator 16.0.0, SVG Export Plug-In . SVG Version: 6.00 Build 0)  -->
<!DOCTYPE svg PUBLIC "-//W3C//DTD SVG 1.1//EN" "http://www.w3.org/Graphics/SVG/1.1/DTD/svg11.dtd">
<svg version="1.1" id="Layer_3" xmlns="http://www.w3.org/2000/svg" xmlns:xlink="http://www.w3.org/1999/xlink" x="0px" y="0px"
	 width="1477.458px" height="1936.383px" viewBox="0 0 1477.458 1936.383" enable-background="new 0 0 1477.458 1936.383"
	 xml:space="preserve">
<g>
	<g>
		<defs>
			<path id="SVGID_1_" d="M259.496,1697.944c-31.334,59.332-71.571,121.773-55.5,172.664c9,28.5,35.5,51,83.5,38
				c19.765,30.003,120,33.334,144.5-37c35.999-103.346,64.166-145.664,64.166-145.664L259.496,1697.944z"/>
		</defs>
		<clipPath id="SVGID_2_">
			<use xlink:href="#SVGID_1_"  overflow="visible"/>
		</clipPath>
		<path clip-path="url(#SVGID_2_)" fill="#C69C6D" d="M194.927,1880.61c-16.68-41.699,46.137-153.332,64.568-182.666
			s264.432-9.334,249.432,29.666s-63.829,169.587-97,190C346.927,1957.61,212.927,1925.61,194.927,1880.61z"/>
		<path clip-path="url(#SVGID_2_)" fill="#A67C52" stroke="#A67C52" stroke-miterlimit="10" d="M239.261,1713.277
			c30,38.666,120.667,72.666,179.333,68.666c-16.667,49.334-27.334,133.333-103.334,144c36,14,95.334,18.667,122.667-23.333
			s80.667-169.333,80.667-169.333l-272-32.666L239.261,1713.277z"/>
		<use xlink:href="#SVGID_1_"  overflow="visible" fill="none" stroke="#000000" stroke-width="10" stroke-miterlimit="10"/>
	</g>
	<path d="M291.737,1905.959c-3.808-6.064-5.943-12.633-6.847-18.867c-0.922-6.24-0.703-12.103-0.2-17.029
		c0.512-4.938,1.302-8.961,1.759-11.807c0.465-2.848,0.604-4.526-0.012-4.845c-0.61-0.318-1.976,0.858-3.619,3.438
		c-1.635,2.578-3.564,6.566-5.068,11.852c-1.486,5.27-2.561,11.892-2.021,19.372c0.27,3.729,0.961,7.655,2.193,11.594
		c1.23,3.938,3.014,7.877,5.333,11.589L291.737,1905.959z"/>
	<g>
		<defs>
			<path id="SVGID_3_" d="M934.83,1683.276c36,64.668,69.334,158.668,38,199.334c-18.242,23.674-51.333,35-99.333,22
				c-42,24-115.136,27.133-125.334-45.332c-14.167-100.67-39.333-143.334-39.333-143.334L934.83,1683.276z"/>
		</defs>
		<clipPath id="SVGID_4_">
			<use xlink:href="#SVGID_3_"  overflow="visible"/>
		</clipPath>
		<path clip-path="url(#SVGID_4_)" fill="#C69C6D" stroke="#A67C52" stroke-miterlimit="10" d="M691.929,1747.278
			c13.333,34,46.667,163.334,74,175.334s176,7.334,198-12s48.667-68.002,28.667-120.668s-51.336-131.999-51.336-131.999
			L691.929,1747.278z"/>
		<path clip-path="url(#SVGID_4_)" fill="#A67C52" stroke="#A67C52" stroke-miterlimit="10" d="M719.927,1785.277
			c146.003-21.999,196-64.665,196-64.665c26.003,50.666,62.669,150.667,12.002,190.667c38.001-1.332,72.001-28.666,67.334-93.332
			c-3.821-52.949-54.003-160.002-54.003-160.002l-245.997,49.999L719.927,1785.277z"/>
		<use xlink:href="#SVGID_3_"  overflow="visible" fill="none" stroke="#000000" stroke-width="10" stroke-miterlimit="10"/>
	</g>
	<path d="M877.39,1907.747c5.668-6.996,9.715-14.866,11.863-22.443c2.188-7.582,2.545-14.752,1.983-20.578
		c-0.559-5.85-1.973-10.394-3.328-13.351c-1.365-2.965-2.681-4.365-3.314-4.098c-0.641,0.266-0.608,2.021-0.462,5.047
		c0.14,3.02,0.394,7.32,0.033,12.524c-0.357,5.193-1.365,11.289-3.683,17.627c-2.292,6.341-5.931,12.877-10.88,18.998
		L877.39,1907.747z"/>
	<path fill="#C69C6D" stroke="#000000" stroke-width="10" stroke-linejoin="round" stroke-miterlimit="10" d="M187.675,549.978
		c-64.962-34.059-147.896-5.65-167.213,67.779C3.486,682.292,38.769,767.407,142.875,765.676
		C246.981,763.946,187.675,549.978,187.675,549.978z"/>
	<ellipse transform="matrix(0.988 0.1545 -0.1545 0.988 101.7622 -12.165)" cx="129.164" cy="648.767" rx="51.321" ry="57.775"/>
	<path fill="#C69C6D" stroke="#000000" stroke-width="10" stroke-linejoin="round" stroke-miterlimit="10" d="M868.544,378.966
		c39.045-62.093,131.951-82.356,183.951-28.356c50.521,52.465,54.059,141.492-36.813,192.318
		C924.81,593.755,868.544,378.966,868.544,378.966z"/>
	
		<ellipse transform="matrix(-0.7765 0.6301 -0.6301 -0.7765 2013.8619 141.2454)" cx="981.883" cy="427.757" rx="48.731" ry="54.86"/>
	<g>
		<defs>
			<path id="SVGID_5_" d="M179.496,1390.608c-7.283,92.861-66,296,136,348s446.119,19.145,532.084-12.947
				c112.494-41.998,173.306-81.508,221.916-353.053c58-324,14-593.998-18-719.998c-51.269-201.87-98-322-270-302
				s-459.91,104.212-530,134c-80,34-170,126-76,450C223.369,1099.618,187.496,1288.608,179.496,1390.608z"/>
		</defs>
		<clipPath id="SVGID_6_">
			<use xlink:href="#SVGID_5_"  overflow="visible"/>
		</clipPath>
		<path clip-path="url(#SVGID_6_)" fill="#61BCE2" d="M119.496,522.61c-40.211,137.866,8,368-4,611.998c-12,244-20,564,104,624
			s664,24,736-44s172-360,164-664c-8-303.998-52-699.998-196-727.998S147.496,426.61,119.496,522.61z"/>
		<path clip-path="url(#SVGID_6_)" fill="#2F9DCC" d="M162.115,548.22c0,0,56.997,40.5,389.98-35.998
			c174.006-39.975,316.483-97.492,316.483-97.492c83.996,37.499,164.917,263.88,150.917,671.878c-14,408-50.43,425.561-116,490
			c-116,114-390,188-686,146c228,94,510,90,612,56s240-82,268-242s62-791.998,38-885.998s-178-346-272-356s-712,164-712,164
			L162.115,548.22z"/>
		<path clip-path="url(#SVGID_6_)" fill="#2F9DCC" d="M164.162,1415.942c0,0,111,128.334,314.334,183.666
			c99.303-52.814,234.334-210.332,234.334-210.332s145.999,126.666,210.666,145.332c54.843-44.41,155.998-198.666,155.998-198.666
			l11.074-54.258l-922.454,80.996L164.162,1415.942z"/>
		<use xlink:href="#SVGID_5_"  overflow="visible" fill="none" stroke="#000000" stroke-width="10" stroke-miterlimit="10"/>
	</g>
	<path fill="#2F9DCC" d="M545.928,895.277c8,28,20.332,38.833,44.999,36.833c6.667,40,28.554,66.003,60,64
		c104.667-6.666,99.667-56.833,99.667-56.833l-11.333-48.667c0,0,53.333-16,34-52S545.928,895.277,545.928,895.277
		S537.928,867.277,545.928,895.277z"/>
</g>
<g>
	<defs>
		<path id="SVGID_7_" d="M166.164,949.944c22,192.998-13.668,435.664-13.668,435.664c89,112,320,184,320,184c112-67,232-201,232-201
			c88,79,217,142,217,142c84-77,173-213,173-213s26.099-355.665-20.568-556.998c-106,217-376.432,346.998-376.432,346.998
			C356.496,926.61,166.164,949.944,166.164,949.944z"/>
	</defs>
	<clipPath id="SVGID_8_">
		<use xlink:href="#SVGID_7_"  overflow="visible"/>
	</clipPath>
	<path clip-path="url(#SVGID_8_)" fill="#2E3192" d="M469.52,1579.155c-0.584-0.182-59.18-18.566-127.862-50.477
		c-92.828-43.129-159.105-89.172-196.991-136.848l-2.694-3.391l0.63-4.285c0.354-2.414,35.22-243.633,13.626-433.078l-1.123-9.852
		l9.841-1.207c0.417-0.051,10.438-1.252,29.603-1.252c63.093,0,237.847,13.461,502.391,137.529
		c16.702-10.115,78.137-48.57,147.585-107.389c74.539-63.131,173.864-163.329,223.751-282.168l12.385-29.502l6.619,31.305
		c24.986,118.164,28.319,277.76,26.716,390.834c-1.734,122.297-9.454,218.092-9.532,219.047l-0.207,2.533l-1.393,2.129
		c-3.662,5.596-90.651,137.934-174.61,214.896l-5.022,4.604l-6.123-2.99c-5.17-2.525-124.342-61.113-211.85-136.98
		c-26.997,29.25-129.369,136.797-227.628,195.576l-3.839,2.297L469.52,1579.155z"/>
	<g clip-path="url(#SVGID_8_)">
		<g>
			<path fill="none" stroke="#FFFFFF" stroke-width="40" d="M254.496,928.61c145.666,146.664,294.334,233.998,438.334,317.332
				c135.822,78.6,277.667,152.334,342.667,163.334c44-28,33.048-29.35,21.999-36.668c-83-23-177.333-61.334-338-156.666
				c-146.895-87.16-263-164.334-364.666-263.332c-27.609-29.592-55.834-17-55.834-17L254.496,928.61z"/>
			<path fill="none" stroke="#FFFFFF" stroke-width="40" d="M243.496,1485.942c355-129.334,688.932-344.832,824.932-748.832
				c4.333-5.5,7-13,14.167-9.166c5.076,2.715,1.667,16.583-0.167,24.166c-44.199,294.254-396.52,625.569-786.932,765.166
				C228,1517.276,243.496,1485.942,243.496,1485.942z"/>
		</g>
		<g>
			<path fill="#ED1C24" d="M254.496,928.61c145.666,146.664,294.334,233.998,438.334,317.332
				c135.822,78.6,277.667,152.334,342.667,163.334c44-28,33.048-29.35,21.999-36.668c-83-23-177.333-61.334-338-156.666
				c-146.895-87.16-263-164.334-364.666-263.332c-27.609-29.592-55.834-17-55.834-17L254.496,928.61z"/>
			<path fill="#ED1C24" d="M243.496,1485.942c355-129.334,688.932-344.832,824.932-748.832c4.333-5.5,7-13,14.167-9.166
				c5.076,2.715,1.667,16.583-0.167,24.166c-44.199,294.254-396.52,625.569-786.932,765.166
				C228,1517.276,243.496,1485.942,243.496,1485.942z"/>
		</g>
	</g>
	<g clip-path="url(#SVGID_8_)">
		<g>
			<path fill="none" stroke="#FFFFFF" stroke-width="47" d="M161.496,1099.608c69,62,256,118,544,92
				c261.229-23.582,381-144,422-208.999s26.722,119.278-1,146.999c-36,36-183,146-416,165s-445,15-556-69
				C109.496,1158.608,161.496,1099.608,161.496,1099.608z"/>
			<path fill="none" stroke="#FFFFFF" stroke-width="47" d="M643.496,1047.608c31,213-8,423-8,423l152-10c0,0,34-209,4-452.999
				C722.496,1029.608,643.496,1047.608,643.496,1047.608z"/>
		</g>
		<g>
			<path fill="#ED1C24" d="M161.496,1099.608c69,62,256,118,544,92c261.229-23.582,381-144,422-208.999s26.722,119.278-1,146.999
				c-36,36-183,146-416,165s-445,15-556-69C109.496,1158.608,161.496,1099.608,161.496,1099.608z"/>
			<path fill="#ED1C24" d="M643.496,1047.608c31,213-8,423-8,423l152-10c0,0,34-209,4-452.999
				C722.496,1029.608,643.496,1047.608,643.496,1047.608z"/>
		</g>
	</g>
	
		<use xlink:href="#SVGID_7_"  overflow="visible" fill="none" stroke="#000000" stroke-width="10" stroke-linejoin="round" stroke-miterlimit="10"/>
</g>
<g>
	<g>
		<defs>
			<path id="SVGID_9_" d="M178.83,999.943c-50,7.334-137.336,102.665-162.002,168.665c-18.426,49.301,2.002,98,44.668,85
				c-12.666,62.334,68.262,89.13,100.099,41.003c43-65,57.901-89.003,111.901-162.669C312.523,1078.7,244.501,990.31,178.83,999.943
				z"/>
		</defs>
		<clipPath id="SVGID_10_">
			<use xlink:href="#SVGID_9_"  overflow="visible"/>
		</clipPath>
		<path clip-path="url(#SVGID_10_)" fill="#C69C6D" d="M115.636,1329.301c-20.235-0.002-39.631-8.955-51.883-23.948
			c-9.057-11.083-13.695-24.823-13.565-39.659c-0.708,0.03-1.412,0.046-2.112,0.046c-14.818,0-27.77-6.904-36.468-19.44
			c-13.827-19.929-15.417-51.04-4.147-81.192c12.304-32.923,39.817-73.932,73.598-109.697c16.889-17.882,60.082-60.046,96.32-65.361
			c3.766-0.552,7.629-0.832,11.482-0.832c36.851,0,75.992,26.446,95.185,64.312c15.413,30.408,14.508,61.144-2.484,84.325
			c-46.046,62.814-63.265,88.938-94.525,136.363c-5.248,7.962-10.881,16.508-17.102,25.911
			c-12.264,18.539-32.054,29.173-54.29,29.173C115.64,1329.301,115.64,1329.301,115.636,1329.301z"/>
		<path clip-path="url(#SVGID_10_)" fill="#A67C52" d="M60.427,1303.11c28.5-1.5,51.858-5.646,76-47
			c54-92.5,87.713-128.352,101.5-158.5c18.869-41.26,20-44.5,16-68c18,16.667,60.667,61.667,26.667,105.667
			S176.427,1282.61,159.427,1311.61S82.927,1335.11,60.427,1303.11z"/>
		<use xlink:href="#SVGID_9_"  overflow="visible" fill="none" stroke="#000000" stroke-width="10" stroke-miterlimit="10"/>
	</g>
	
		<ellipse fill="#FFFFFF" stroke="#000000" stroke-width="10" stroke-miterlimit="10" cx="423.101" cy="677.214" rx="145.493" ry="151.492"/>
	<ellipse cx="411.101" cy="679.214" rx="73.417" ry="76.443"/>
	<circle fill="#FFFFFF" cx="393.995" cy="658.11" r="32.333"/>
	
		<ellipse fill="#FFFFFF" stroke="#000000" stroke-width="10" stroke-miterlimit="10" cx="775.101" cy="591.214" rx="145.493" ry="151.492"/>
	<ellipse cx="763.101" cy="593.214" rx="73.417" ry="76.443"/>
	<path fill="#FFFFFF" stroke="#000000" stroke-width="10" stroke-miterlimit="10" d="M605.581,887.917
		c6.536,63.168,15.081,82.873,29.983,87.219c14.903,4.348,110.365-14.442,119.827-34.229c9.462-19.785-24.904-90.602-24.904-90.602
		s-40.942-2.951-78.095,3.188C615.24,859.633,605.581,887.917,605.581,887.917z"/>
	<circle fill="#FFFFFF" cx="745.995" cy="572.109" r="32.333"/>
	<path d="M676.646,890.938c2.681-0.69,10.563,21.595,14.837,38.185c4.272,16.59,4.355,25.882,1.68,26.571
		s-7.092-7.487-11.364-24.077C677.526,915.027,673.969,891.627,676.646,890.938z"/>
	<path fill="#C69C6D" stroke="#000000" stroke-width="10" stroke-miterlimit="10" d="M639.496,764.61
		c-89.819,19.921-126.633,95.908-88.896,136.2c33.838,36.129,91.711-22.377,125.857-28.253c34.145-5.876,97.492,1.43,102.513-42.466
		C784.244,783.968,728.462,744.878,639.496,764.61z"/>
	<path d="M599.705,774.75c-3.398,18.354,28.805,44.68,55.557,41.301c26.753-3.381,42.518-50.527,31.42-60.788
		C675.583,745.002,603.517,754.166,599.705,774.75z"/>
	<path d="M66.32,1254.919c2.697-9.98,5.325-18.858,7.388-25.223c1.019-3.189,1.878-5.756,2.388-7.61
		c0.506-1.859,0.662-3.002,0.165-3.476c-0.502-0.482-1.8-0.042-3.416,1.331c-1.623,1.367-3.565,3.655-5.52,6.707
		c-3.941,6.094-7.845,15.241-10.653,25.647L66.32,1254.919z"/>
	<g>
		<defs>
			<path id="SVGID_11_" d="M1087.163,903.943c-41.109,0-73,179.999-4,191.999s172,17,172,17l17-199.999
				C1272.163,912.943,1145.163,903.943,1087.163,903.943z"/>
		</defs>
		<clipPath id="SVGID_12_">
			<use xlink:href="#SVGID_11_"  overflow="visible"/>
		</clipPath>
		<path clip-path="url(#SVGID_12_)" fill="#C69C6D" d="M1079.927,895.11c27.572,0,150.5,11,164.5,11.5s-5.5,211.5-38,208.5
			s-114.5-14-133.5-17.5s-37.5-37.5-32.5-98S1067.427,895.11,1079.927,895.11z"/>
		<path clip-path="url(#SVGID_12_)" fill="#A67C52" d="M1117.26,902.61c-23,11.667-49.833,47.5-44.833,131.5
			c42.001,20.334,107,27.5,134.5,27s1,62.5,1,62.5s-123.5-9-145-23.5s-38-69-35-101.5s15.5-99,38-104.5
			S1117.26,902.61,1117.26,902.61z"/>
		<use xlink:href="#SVGID_11_"  overflow="visible" fill="none" stroke="#000000" stroke-width="10" stroke-miterlimit="10"/>
	</g>
	<path fill="#8C6239" stroke="#000000" stroke-width="10" stroke-linejoin="round" stroke-miterlimit="10" d="M1239.397,1117.588
		c-1.249,0-2.512-0.078-3.783-0.236c-16.438-2.068-28.088-17.072-26.021-33.512c15.794-125.533,25.812-202.911,29.775-229.982
		c7.056-48.189,35.741-84.631,78.703-99.979c41.942-14.982,89.177-6.303,120.342,22.108c14.637,13.343,25.089,30.637,30.227,50.011
		c5.415,20.42,5.069,42.843-1.026,66.647c-4.111,16.051-20.454,25.731-36.505,21.62s-25.73-20.455-21.62-36.505
		c4.447-17.365,6.062-41.426-11.496-57.433c-14.748-13.444-38.753-17.44-59.735-9.946c-12.564,4.488-34.407,17.235-39.521,52.168
		c-3.905,26.673-13.868,103.646-29.611,228.78C1267.216,1106.499,1254.296,1117.588,1239.397,1117.588z"/>
	<path fill="#8C6239" stroke="#000000" stroke-width="10" stroke-linejoin="round" stroke-miterlimit="10" d="M1140.091,1910.155
		c-0.812,0-1.631-0.049-2.455-0.15c-10.964-1.342-18.765-11.318-17.422-22.281c0.605-4.947,60.994-498.164,99.301-802.635
		c1.379-10.959,11.369-18.727,22.341-17.346c10.959,1.379,18.726,11.381,17.347,22.34c-38.299,304.402-98.68,797.555-99.285,802.5
		C1158.676,1902.721,1150.052,1910.155,1140.091,1910.155z"/>
	<path stroke="#000000" stroke-width="15" stroke-linecap="round" stroke-linejoin="round" stroke-miterlimit="10" d="
		M1114.039,1762.997c-2.364,23.223,11.996,37.83,34.064,40.281c23.671,2.629,40.332-1.064,46.286-31.072
		c5.953-30.01,125.73-597.865,125.73-597.865c-18.623,28.029-49.294,25.412-54.021-11.248c-19.277,34.697-63.949,30.768-72.01-7.889
		c-16.606,38.029-47.955,29.412-54.662,4.752C1138.935,1271.292,1117.979,1724.325,1114.039,1762.997z"/>
	<g>
		<path d="M256.609,486.726c0,0-38.998-145.492-58.498-238.487C178.613,155.243,261.108,62.249,405.1,23.25
			c143.993-38.998,278.986-38.998,319.484,79.496c31.624,92.527,68.996,215.988,68.996,215.988S664.587,380.233,513.095,425.23
			S256.609,486.726,256.609,486.726z"/>
		<polygon fill="#FFFFFF" stroke="#000000" stroke-width="30" stroke-linejoin="round" stroke-miterlimit="10" points="
			235.496,375.111 757.496,223.611 789.996,337.111 523.996,424.111 264.996,486.111 		"/>
		<path d="M102.996,421.111c98,20,206,26,424.666-34.667c276.646-76.752,296.084-121.872,357.417-183.205
			c46.824-46.824,55.999,67.494,23.999,106.494c-26.949,32.844-187.416,87.711-365.416,136.711
			c-172.807,47.57-370.994,90.629-410.666,65.667C88.496,484.111,47.942,409.875,102.996,421.111z"/>
		<path fill="#FFFFFF" d="M264.33,308.111c33.684-2.749,13.477-56.923,49.332-124.333c33.334-62.667,91.909-92.35,67-109.334
			c-29.333-20-131.666,37.167-152.166,115.667C218.326,229.053,239.83,310.111,264.33,308.111z"/>
	</g>
	<path d="M704.496,1341.608c-2.061-0.104-3.359-12.527-4.412-32.574c-1.033-20.049-1.82-47.719-2.346-78.325
		c-1.033-61.197-0.433-110.878,3.758-111.101c4.088-0.225,10.199,49.3,11.24,110.849c0.527,30.762-0.362,58.62-2.045,78.743
		C709.029,1329.326,706.576,1341.713,704.496,1341.608z"/>
	
		<circle fill="none" stroke="#000000" stroke-width="10" stroke-linejoin="round" stroke-miterlimit="10" cx="760.161" cy="1149.276" r="28.667"/>
	
		<circle fill="none" stroke="#000000" stroke-width="10" stroke-linejoin="round" stroke-miterlimit="10" cx="759.495" cy="1292.608" r="28.667"/>
	<g>
		<defs>
			<path id="SVGID_13_" d="M1274.496,902.61c-75.242-3.549-88,67-66,106.999c-32,49.999-37.081,112.015,32,116.999
				C1337.496,1133.608,1380.496,907.61,1274.496,902.61z"/>
		</defs>
		<clipPath id="SVGID_14_">
			<use xlink:href="#SVGID_13_"  overflow="visible"/>
		</clipPath>
		<path clip-path="url(#SVGID_14_)" fill="#C69C6D" d="M1213.927,912.61c-16.193,13.068-58.14,173.515-18,204.5
			c28.5,22,107,35.5,140-83.5S1270.927,866.61,1213.927,912.61z"/>
		<path clip-path="url(#SVGID_14_)" fill="#A67C52" d="M1207.927,1118.61c56-10,104-100,102.5-198
			c31.432,3.5,39.575,57.736,28.5,102.5C1314.927,1120.11,1262.927,1151.61,1207.927,1118.61z"/>
		<use xlink:href="#SVGID_13_"  overflow="visible" fill="none" stroke="#000000" stroke-width="10" stroke-miterlimit="10"/>
	</g>
</g>
</svg>
